<svg width="24" height="23" viewBox="0 0 24 23" fill="none" xmlns="http://www.w3.org/2000/svg">
<path fill-rule="evenodd" clip-rule="evenodd" d="M18.7805 11.7441C15.8977 11.7441 13.5609 14.081 13.5609 16.9638C13.5609 19.8465 15.8977 22.1835 18.7805 22.1835C21.6632 22.1835 24 19.8465 24 16.9638C24 14.081 21.6632 11.7441 18.7805 11.7441ZM5.21957 11.7445C2.33691 11.7445 0 14.081 0 16.9638C0 19.8465 2.33691 22.1835 5.21957 22.1835C8.10236 22.1835 10.4394 19.8465 10.4394 16.9638C10.4394 14.081 8.10236 11.7445 5.21957 11.7445ZM17.2195 5.21946C17.2195 8.10236 14.8827 10.4395 12.0001 10.4395C9.11724 10.4395 6.78044 8.10236 6.78044 5.21946C6.78044 2.33713 9.11724 0 12.0001 0C14.8827 0 17.2195 2.33713 17.2195 5.21946Z" fill="#F06A6A"/>
</svg>
