<svg width="24" height="22" viewBox="0 0 24 22" fill="none" xmlns="http://www.w3.org/2000/svg">
<path d="M0.778877 6.4011e-05C0.666644 -0.00138107 0.555454 0.0216574 0.453116 0.0675614C0.350777 0.113465 0.259772 0.181122 0.186492 0.265779C0.113212 0.350437 0.0594334 0.450042 0.0289332 0.5576C-0.00156689 0.665159 -0.00804899 0.778062 0.0099422 0.888381L3.27421 20.62C3.31487 20.8615 3.43968 21.081 3.62672 21.2399C3.81375 21.3988 4.05105 21.4871 4.29693 21.4891H19.9569C20.1412 21.4914 20.3202 21.4278 20.4613 21.3097C20.6024 21.1917 20.6963 21.0271 20.7257 20.8459L23.9901 0.892208C24.008 0.781895 24.0015 0.669005 23.971 0.561463C23.9405 0.453921 23.8867 0.354335 23.8134 0.269697C23.7401 0.18506 23.6491 0.117423 23.5468 0.0715358C23.4445 0.0256487 23.3333 0.00262389 23.2211 0.00407805L0.778877 6.4011e-05ZM14.5241 14.2609H9.52582L8.17245 7.22048H15.7352L14.5241 14.2609Z" fill="#2684FF"/>
<path d="M22.932 7.21045H15.7211L14.5109 14.2453H9.51667L3.61963 21.2151C3.80654 21.376 4.04483 21.4654 4.29191 21.4675H19.9432C20.1274 21.4698 20.3063 21.4063 20.4473 21.2883C20.5884 21.1704 20.6821 21.0059 20.7116 20.8249L22.932 7.21045Z" fill="url(#paint0_linear_1099_5426)"/>
<defs>
<linearGradient id="paint0_linear_1099_5426" x1="24.5992" y1="9.18049" x2="16.3171" y2="20.9906" gradientUnits="userSpaceOnUse">
<stop offset="0.18" stop-color="#0052CC"/>
<stop offset="1" stop-color="#2684FF"/>
</linearGradient>
</defs>
</svg>
