<svg width="28" height="28" viewBox="0 0 28 28" fill="none" xmlns="http://www.w3.org/2000/svg">
<path d="M13.7669 12.7167C11.1185 12.0283 10.2669 11.3167 10.2669 10.2083C10.2669 8.93667 11.4452 8.05 13.4169 8.05C15.4935 8.05 16.2635 9.04167 16.3335 10.5H18.9119C18.8302 8.49333 17.6052 6.65 15.1669 6.055V3.5H11.6669V6.02C9.40353 6.51 7.58353 7.98 7.58353 10.2317C7.58353 12.9267 9.81187 14.2683 13.0669 15.05C15.9835 15.75 16.5669 16.7767 16.5669 17.8617C16.5669 18.6667 15.9952 19.95 13.4169 19.95C11.0135 19.95 10.0685 18.8767 9.9402 17.5H7.37354C7.51354 20.055 9.42687 21.49 11.6669 21.9683V24.5H15.1669V21.9917C17.4419 21.56 19.2502 20.2417 19.2502 17.85C19.2502 14.5367 16.4152 13.405 13.7669 12.7167Z" fill="#B6C8EB"/>
</svg>
