<svg width="34" height="32" viewBox="0 0 34 32" fill="none" xmlns="http://www.w3.org/2000/svg">
<path d="M33.8998 6.62299C34.0516 8.28652 33.6176 9.95084 32.6714 11.3336L32.6685 11.3335L30.5472 9.19147C30.9458 8.38511 31.0822 7.47619 30.9376 6.58988C30.7929 5.70357 30.3744 4.88346 29.7397 4.24249C29.1049 3.60151 28.2851 3.17119 27.3932 3.01079C26.5012 2.85039 25.581 2.96779 24.7592 3.34683L22.6408 1.20769C24.0548 0.297265 25.7433 -0.100649 27.4198 0.0814649C29.0963 0.263578 30.6575 1.0145 31.8386 2.20683C33.0197 3.39916 33.748 4.95946 33.8998 6.62299Z" fill="#F1BA66"/>
<path d="M0.0826492 6.5148C-0.101719 8.1751 0.299577 9.84745 1.21845 11.2481L1.22137 11.2481L3.38425 9.14724C3.00153 8.33337 2.88298 7.42201 3.04494 6.53864C3.20691 5.65528 3.64141 4.84337 4.28862 4.21472C4.93583 3.58606 5.76391 3.17159 6.65883 3.02836C7.55376 2.88513 8.47151 3.02021 9.28571 3.41497L11.4456 1.31696C10.0498 0.379525 8.36939 -0.0507729 6.68964 0.0990783C5.00989 0.248929 3.43421 0.9697 2.22995 2.1391C1.02569 3.3085 0.267017 4.8545 0.0826492 6.5148Z" fill="#7DD6A5"/>
<rect x="15.0283" y="10.4189" width="3.00565" height="11.1627" rx="1.50283" fill="#F1BA66"/>
<rect x="15.0283" y="21.5815" width="2.97671" height="7.51413" rx="1.48836" transform="rotate(-90 15.0283 21.5815)" fill="#7DD6A5"/>
<path fill-rule="evenodd" clip-rule="evenodd" d="M17.2827 32C25.1676 32 31.5596 25.6695 31.5596 17.8606C31.5596 10.0516 25.1676 3.72119 17.2827 3.72119C9.39782 3.72119 3.00586 10.0516 3.00586 17.8606C3.00586 25.6695 9.39782 32 17.2827 32ZM17.2827 28.1438C23.0172 28.1438 27.6659 23.5398 27.6659 17.8606C27.6659 12.1813 23.0172 7.57739 17.2827 7.57739C11.5482 7.57739 6.89955 12.1813 6.89955 17.8606C6.89955 23.5398 11.5482 28.1438 17.2827 28.1438Z" fill="#415EB6"/>
</svg>
