<svg width="169" height="24" viewBox="0 0 169 24" fill="none" xmlns="http://www.w3.org/2000/svg">
<path d="M133.204 5.58325C133.31 6.72825 133.007 7.87379 132.347 8.82551L132.345 8.82549L130.863 7.35112C131.142 6.7961 131.237 6.1705 131.136 5.56046C131.035 4.95041 130.743 4.38593 130.299 3.94475C129.856 3.50357 129.284 3.20738 128.661 3.09698C128.038 2.98657 127.395 3.06738 126.821 3.32828L125.342 1.85591C126.329 1.22927 127.508 0.955387 128.679 1.08074C129.85 1.20608 130.94 1.72294 131.765 2.54362C132.59 3.36429 133.098 4.43824 133.204 5.58325Z" fill="#F1BA66"/>
<path d="M109.589 5.50853C109.46 6.65131 109.74 7.80238 110.382 8.76644L110.384 8.76646L111.894 7.32043C111.627 6.76025 111.544 6.13296 111.657 5.52494C111.771 4.91693 112.074 4.35809 112.526 3.92539C112.978 3.49269 113.556 3.20741 114.181 3.10882C114.806 3.01024 115.447 3.10321 116.016 3.37493L117.524 1.93088C116.549 1.28564 115.376 0.989467 114.203 1.09261C113.03 1.19575 111.929 1.69186 111.088 2.49675C110.247 3.30164 109.717 4.36575 109.589 5.50853Z" fill="#7DD6A5"/>
<rect x="120.026" y="8.1958" width="2.09895" height="7.68323" rx="1.04947" fill="#F1BA66"/>
<rect x="120.026" y="15.8789" width="2.04886" height="5.24737" rx="1.02443" transform="rotate(-90 120.026 15.8789)" fill="#7DD6A5"/>
<path fill-rule="evenodd" clip-rule="evenodd" d="M121.6 23.0501C127.107 23.0501 131.57 18.6929 131.57 13.318C131.57 7.94314 127.107 3.58594 121.6 3.58594C116.094 3.58594 111.63 7.94314 111.63 13.318C111.63 18.6929 116.094 23.0501 121.6 23.0501ZM121.6 20.3959C125.605 20.3959 128.851 17.227 128.851 13.318C128.851 9.40902 125.605 6.24015 121.6 6.24015C117.596 6.24015 114.349 9.40902 114.349 13.318C114.349 17.227 117.596 20.3959 121.6 20.3959Z" fill="#415EB6"/>
<path d="M44.6027 14.7127V14.8108C44.6027 15.1198 44.3185 15.2744 43.7515 15.2744L43.2741 15.3024H43.036L42.9169 15.3165H42.2758L40.9781 15.3024L40.8438 15.3165H40.2026C39.2875 15.3165 38.8306 15.1853 38.8306 14.9231V14.8388C38.8306 13.7714 39.6854 11.3982 41.3953 7.71853C41.7434 6.97888 41.9469 6.60889 42.0071 6.60889C42.0762 6.60889 42.2899 6.97403 42.6482 7.70438C43.0066 8.42532 43.3292 9.40392 43.6184 10.6398C43.9166 11.8664 44.0907 12.5732 44.1393 12.7604C44.1994 12.9476 44.289 13.308 44.408 13.8417C44.5373 14.366 44.6027 14.6565 44.6027 14.7127Z" fill="#F1BA66"/>
<path d="M12.4578 3.72247C13.5363 3.72247 14.2138 3.78917 14.4903 3.92258C14.7761 4.04709 14.9189 4.40285 14.9189 4.98984C14.9189 5.57683 14.7392 5.98595 14.3797 6.21719C14.0202 6.43954 13.186 6.55071 11.8771 6.55071C10.5774 6.55071 9.78465 6.79974 9.4989 7.29779C9.22237 7.79585 9.0841 9.6013 9.0841 12.7141L8.98732 18.7175C8.98732 20.7364 8.9274 21.9059 8.80757 22.2261C8.69696 22.5374 8.18998 22.693 7.28664 22.693H6.62296C6.1252 22.693 5.8118 22.5685 5.68275 22.3195C5.56292 22.0705 5.503 21.4479 5.503 20.4518L5.51683 20.1183C5.52605 19.8959 5.53066 19.6736 5.53066 19.4512L5.55831 18.7975C5.62283 17.2678 5.6551 16.3873 5.6551 16.1561V15.4623L5.66892 14.4484V13.7681L5.68275 13.4345V12.7542C5.68275 9.72137 5.62744 8.0093 5.51683 7.61797C5.40622 7.22664 5.24951 6.96427 5.04672 6.83087C4.85315 6.69746 4.37844 6.63075 3.62258 6.63075L1.6592 6.67078C0.553066 6.67078 0 6.19051 0 5.22997V4.94982C0 4.47844 0.156702 4.1805 0.470106 4.05598C0.78351 3.93147 1.51632 3.86921 2.66854 3.86921L5.06055 3.80251L5.40622 3.78917C5.63666 3.78028 5.8671 3.77583 6.09755 3.77583L6.45704 3.76249C6.6967 3.75359 6.92715 3.74915 7.14837 3.74915L8.93201 3.72247H12.4578Z" fill="#415EB6"/>
<path d="M21.5834 12.4473H22.4959L22.6204 12.434H22.8554C24.5423 12.434 25.7083 12.1805 26.3536 11.6736C26.9988 11.1577 27.3214 10.4017 27.3214 9.40563V9.15216C27.3214 8.2272 27.0173 7.54682 26.4089 7.11102C25.8097 6.67522 24.8695 6.45732 23.5882 6.45732H22.9937L22.8831 6.47066C21.823 6.47066 21.1916 6.52403 20.9888 6.63075C20.7953 6.73748 20.6985 7.08879 20.6985 7.68468C20.68 7.82698 20.6708 7.95594 20.6708 8.07156V9.01875L20.657 9.36561V11.18C20.6847 11.3934 20.6985 11.5668 20.6985 11.7002C20.6985 12.1983 20.9934 12.4473 21.5834 12.4473ZM27.515 14.7019C27.515 14.7553 27.6118 14.9465 27.8054 15.2756C27.9989 15.6046 28.6396 16.792 29.7273 18.8376C30.815 20.8831 31.3588 21.9904 31.3588 22.1594C31.3588 22.5241 30.8795 22.7064 29.9208 22.7064C28.9622 22.7064 28.2663 22.4707 27.833 21.9993C27.5381 21.6791 26.9666 20.6697 26.1185 18.971C25.2705 17.2634 24.6206 16.2183 24.169 15.8359C23.7265 15.4446 23.0167 15.2489 22.0397 15.2489C21.3852 15.2489 20.9934 15.4935 20.8644 15.9826C20.7354 16.4629 20.6708 17.5657 20.6708 19.2911C20.6708 21.0166 20.5464 22.026 20.2975 22.3195C20.0486 22.6041 19.537 22.7464 18.7628 22.7464H18.3618C17.8087 22.7464 17.463 22.6664 17.3248 22.5063C17.1957 22.3373 17.1312 21.8704 17.1312 21.1055V15.9826L17.145 15.5824V13.2344C17.145 7.70246 17.2096 4.78083 17.3386 4.46955C17.4769 4.14937 17.8271 3.94926 18.3894 3.86921C18.9517 3.78917 20.1777 3.74915 22.0673 3.74915H23.7127C27.3168 3.74915 29.5521 4.77639 30.4186 6.83087C30.6767 7.44454 30.8058 8.23165 30.8058 9.19218C30.8058 10.1438 30.603 10.9843 30.1974 11.7136C29.801 12.4429 29.2526 13.061 28.552 13.568C27.8607 14.0749 27.515 14.4529 27.515 14.7019Z" fill="#415EB6"/>
<path d="M40.8024 14.9954H42.9179C43.7936 14.9954 44.2314 14.8709 44.2314 14.6219V14.5418C44.2314 13.5368 43.6277 11.5179 42.4201 8.48512C42.1897 7.90702 42.033 7.61797 41.95 7.61797C41.9132 7.61797 41.7565 7.92481 41.4799 8.53849C40.0604 11.7314 39.3506 13.7681 39.3506 14.6486C39.3506 14.8798 39.8345 14.9954 40.8024 14.9954ZM50.0939 21.8526C50.0939 22.324 49.6422 22.5596 48.7389 22.5596C47.8356 22.5596 47.1811 22.2884 46.7755 21.7459C46.5266 21.4079 46.2363 20.7631 45.9044 19.8114C45.5818 18.8509 45.3376 18.2773 45.1716 18.0905C44.8951 17.7881 44.1853 17.6369 43.0423 17.6369C40.7195 17.6369 39.2446 17.7925 38.6178 18.1038C38.2767 18.2728 37.9126 18.882 37.5255 19.9315C37.1384 20.981 36.8526 21.6169 36.6683 21.8392C36.318 22.2572 35.7234 22.4663 34.8846 22.4663C34.055 22.4663 33.6402 22.2795 33.6402 21.9059C33.6402 21.5324 34.479 18.9176 36.1567 14.0616C37.8343 9.20552 38.71 6.70191 38.7837 6.55071C39.4935 5.14548 39.9912 4.3228 40.277 4.08267C40.572 3.84253 41.125 3.72247 41.9362 3.72247C42.7474 3.73136 43.2866 3.83364 43.5539 4.0293C44.2084 4.51847 45.1624 6.54182 46.416 10.0994C47.6789 13.6569 48.4163 15.8626 48.6283 16.7164C48.8403 17.5613 49.1353 18.5885 49.5132 19.7981C49.9003 21.0077 50.0939 21.6925 50.0939 21.8526Z" fill="#415EB6"/>
<path d="M55.9564 13.8748C55.9564 14.7998 56.067 15.6714 56.2882 16.4896C56.9058 18.7664 58.4406 19.9048 60.8925 19.9048C61.7313 19.9048 62.6669 19.7092 63.6993 19.3178C64.7317 18.9176 65.4369 18.7175 65.8148 18.7175C66.202 18.7175 66.5015 18.8376 66.7135 19.0777C66.9255 19.3178 67.0315 19.5935 67.0315 19.9048C67.0315 20.6074 66.2895 21.3101 64.8055 22.0127C63.5979 22.5819 62.2568 22.8665 60.7819 22.8665H60.3533C58.9798 22.8665 57.7631 22.6308 56.7031 22.1594C54.6844 21.2611 53.3893 19.7937 52.8178 17.757C52.4583 16.4674 52.2785 15.0399 52.2785 13.4746C52.2785 10.3261 52.9837 7.92481 54.394 6.27055C55.03 5.52347 55.938 4.9009 57.1179 4.40285C58.3069 3.90479 59.4638 3.65576 60.5883 3.65576H61.0031C62.5241 3.65576 63.7178 3.86032 64.5842 4.26944C65.4507 4.67855 66.0913 5.14993 66.5061 5.68356C66.6628 5.88812 66.7412 6.2083 66.7412 6.6441C66.7412 7.07989 66.6075 7.42675 66.3402 7.68468C66.0729 7.9426 65.7411 8.07156 65.3447 8.07156C64.9576 8.07156 64.1879 7.85811 63.0357 7.4312C61.8834 6.9954 60.9386 6.7775 60.2012 6.7775C59.4638 6.7775 58.8001 6.93315 58.2102 7.24443C57.6294 7.55571 57.187 7.95594 56.8828 8.4451C56.2652 9.42342 55.9564 11.2333 55.9564 13.8748Z" fill="#415EB6"/>
<path d="M70.8892 4.33614C71.1473 4.12269 71.5759 4.01596 72.1751 4.01596C72.7834 4.01596 73.2167 4.17605 73.4748 4.49623C73.7421 4.81641 73.8757 5.55905 73.8757 6.72414C73.8757 9.17884 73.9817 10.6152 74.1937 11.0332C74.2951 11.2289 74.415 11.3267 74.5532 11.3267C75.0049 11.3267 76.0327 10.295 77.6366 8.23165C79.2497 6.15938 80.2498 4.96316 80.637 4.64298C81.2453 4.13603 82.0934 3.88255 83.1811 3.88255C83.8355 3.88255 84.1628 4.05598 84.1628 4.40285C84.1628 4.67855 83.2272 5.9904 81.3559 8.33837C79.494 10.6775 78.563 11.9226 78.563 12.0738C78.563 12.225 79.1253 13.1722 80.2498 14.9154C81.3744 16.6586 82.1118 17.7836 82.4621 18.2906L83.2779 19.4779C84.3655 21.0966 84.9094 21.9771 84.9094 22.1194C84.9094 22.5285 84.4301 22.7331 83.4714 22.7331C82.522 22.7331 81.7661 22.4751 81.2039 21.9593C80.8997 21.6747 80.2222 20.7364 79.1713 19.1444C78.1297 17.5524 77.4522 16.5652 77.1388 16.1827C76.383 15.2578 75.7792 14.7953 75.3275 14.7953C74.8851 14.7953 74.5118 15.2934 74.2076 16.2895C74.0877 16.6897 74.0278 17.628 74.0278 19.1044C74.0278 20.5719 73.908 21.5546 73.6683 22.0527C73.4748 22.444 72.9678 22.6397 72.1474 22.6397C71.3362 22.6397 70.8523 22.4084 70.6956 21.946C70.6311 21.7503 70.5988 20.4296 70.5988 17.9838V13.8348L70.585 12.8742V10.5396L70.502 5.72358C70.502 5.00318 70.6311 4.5407 70.8892 4.33614Z" fill="#415EB6"/>
<path d="M90.5092 4.22942C91.5047 4.22942 92.3758 4.74081 93.1224 5.7636C93.611 6.43064 94.4175 7.88923 95.5421 10.1394L97.464 14.1016L97.7405 14.5285C97.8788 14.5285 98.607 13.1366 99.9251 10.3528C101.234 7.57795 102.018 5.99484 102.276 5.60351C102.82 4.76749 103.677 4.34948 104.847 4.34948C105.032 4.34948 105.331 4.474 105.746 4.72302C106.161 4.97205 106.456 5.38562 106.631 5.96372C106.815 6.54182 106.908 7.71136 106.908 9.47234V12.7942L106.866 14.7686L106.852 16.0627V17.3567L106.866 17.9971V19.2645L106.908 21.0788C106.908 21.4524 106.802 21.7725 106.59 22.0393C106.387 22.2973 106.078 22.4262 105.663 22.4262C105.258 22.4262 104.898 22.2973 104.585 22.0393C104.281 21.7725 104.055 21.4435 103.907 21.0521C103.769 20.6608 103.7 19.2645 103.7 16.8631L103.672 15.5424C103.663 15.0977 103.658 14.6575 103.658 14.2217C103.658 11.6958 103.552 10.4329 103.34 10.4329C103.128 10.4329 102.437 11.7225 101.266 14.3017C100.105 16.872 99.4135 18.3351 99.1923 18.6908C98.8513 19.2422 98.3673 19.5179 97.7405 19.5179C97.1137 19.5179 96.6252 19.3045 96.2749 18.8776C96.0998 18.6552 95.3946 17.21 94.1594 14.5418C92.9335 11.8737 92.2145 10.5396 92.0025 10.5396C91.7905 10.5396 91.5831 11.8559 91.3803 14.4885C91.3065 15.4846 91.2558 16.5652 91.2282 17.7303C91.2005 18.8865 91.1498 19.7181 91.0761 20.225C91.0023 20.7231 90.8272 21.1633 90.5507 21.5457C90.2833 21.9193 89.9469 22.1061 89.5413 22.1061C89.1357 22.1061 88.8546 22.0482 88.6979 21.9326C88.4029 21.7192 88.2554 21.2834 88.2554 20.6252L88.7255 8.47178L88.7117 7.83142L88.6702 6.56405C88.6702 5.9148 88.7855 5.40785 89.0159 5.0432C89.357 4.50068 89.8547 4.22942 90.5092 4.22942Z" fill="#415EB6"/>
<path d="M161.125 14.7131V14.8113C161.125 15.1203 160.841 15.2749 160.274 15.2749L159.797 15.3029H159.558L159.439 15.317H158.798L157.501 15.3029L157.366 15.317H156.725C155.81 15.317 155.353 15.1858 155.353 14.9236V14.8393C155.353 13.7719 156.208 11.3987 157.918 7.71902C158.266 6.97937 158.469 6.60938 158.53 6.60938C158.599 6.60938 158.812 6.97452 159.171 7.70487C159.529 8.42581 159.852 9.40441 160.141 10.6403C160.439 11.8668 160.613 12.5736 160.662 12.7609C160.722 12.9481 160.811 13.3085 160.93 13.8422C161.06 14.3665 161.125 14.657 161.125 14.7131Z" fill="#7DD6A5"/>
<path d="M135.94 6.03061C135.912 5.42583 135.898 4.9678 135.898 4.65651C135.898 4.33633 135.963 4.10954 136.092 3.97613C136.221 3.84272 136.737 3.77602 137.641 3.77602C138.544 3.77602 139.069 4.04728 139.217 4.58981C139.41 5.28353 139.507 7.76936 139.507 12.0473C139.507 16.3252 139.673 18.7488 140.005 19.318C140.189 19.6293 140.576 19.8205 141.166 19.8917C141.756 19.9628 142.95 19.9984 144.747 19.9984C146.545 19.9984 147.55 20.0518 147.762 20.1585C148.14 20.3453 148.329 20.7944 148.329 21.5059V21.7994C148.329 22.1907 148.259 22.4576 148.121 22.5999C147.983 22.7422 147.61 22.8133 147.001 22.8133H145.093L144.775 22.8H143.821L142.217 22.7733C139.516 22.7733 137.922 22.7377 137.433 22.6666C136.945 22.6043 136.585 22.3908 136.355 22.0262C136.133 21.6616 136.023 18.5976 136.023 12.8344L135.981 11.0334C135.981 10.7399 135.981 10.4464 135.981 10.1529L135.968 9.56592V8.09843L135.981 7.51144C135.981 7.31577 135.981 7.12011 135.981 6.92444L135.94 6.03061Z" fill="#415EB6"/>
<path d="M157.081 14.9956H159.196C160.072 14.9956 160.51 14.8711 160.51 14.6221V14.542C160.51 13.537 159.906 11.5181 158.699 8.48531C158.468 7.90721 158.311 7.61816 158.228 7.61816C158.192 7.61816 158.035 7.925 157.758 8.53868C156.339 11.7316 155.629 13.7683 155.629 14.6488C155.629 14.88 156.113 14.9956 157.081 14.9956ZM166.372 21.8528C166.372 22.3241 165.921 22.5598 165.017 22.5598C164.114 22.5598 163.46 22.2886 163.054 21.746C162.805 21.4081 162.515 20.7633 162.183 19.8116C161.86 18.8511 161.616 18.2774 161.45 18.0907C161.174 17.7883 160.464 17.6371 159.321 17.6371C156.998 17.6371 155.523 17.7927 154.896 18.104C154.555 18.273 154.191 18.8822 153.804 19.9317C153.417 20.9812 153.131 21.6171 152.947 21.8394C152.596 22.2574 152.002 22.4664 151.163 22.4664C150.333 22.4664 149.919 22.2797 149.919 21.9061C149.919 21.5326 150.757 18.9178 152.435 14.0618C154.113 9.20571 154.988 6.7021 155.062 6.5509C155.772 5.14567 156.27 4.32299 156.555 4.08286C156.85 3.84272 157.403 3.72266 158.215 3.72266C159.026 3.73155 159.565 3.83383 159.832 4.02949C160.487 4.51866 161.441 6.54201 162.694 10.0995C163.957 13.6571 164.695 15.8628 164.907 16.7166C165.119 17.5615 165.414 18.5887 165.792 19.7983C166.179 21.0079 166.372 21.6927 166.372 21.8528Z" fill="#415EB6"/>
</svg>
