<svg width="96" height="74" viewBox="0 0 96 74" fill="none" xmlns="http://www.w3.org/2000/svg">
<path d="M69.3465 15.3784H49.4129C47.0986 15.2511 42.4206 10.382 39.7597 10.382H28.0857V10.3809C27.4056 10.3796 26.7527 10.6485 26.2708 11.1285C25.7888 11.6085 25.5172 12.2602 25.5156 12.9404V21.5549H71.4946V17.5253C71.4943 16.9558 71.2678 16.4097 70.865 16.0072C70.4622 15.6046 69.916 15.3784 69.3465 15.3784V15.3784ZM71.4946 21.5549H25.5156V43.6401C25.515 43.9772 25.5808 44.3111 25.7093 44.6228C25.8378 44.9344 26.0265 45.2177 26.2645 45.4564C26.5025 45.6951 26.7853 45.8845 27.0966 46.0138C27.4078 46.1432 27.7416 46.2099 28.0787 46.2102H68.9233C69.2603 46.211 69.5941 46.1454 69.9057 46.0171C70.2174 45.8888 70.5007 45.7004 70.7394 45.4626C70.9782 45.2248 71.1678 44.9423 71.2974 44.6312C71.4269 44.3201 71.494 43.9866 71.4946 43.6496V21.5549Z" stroke="#415EB6" stroke-linecap="round" stroke-linejoin="round"/>
<path d="M9.4047 60.4481V70.7371H8.19896L2.59226 62.6586H2.49178V70.7371H1.24585V60.4481H2.45159L8.07839 68.5467H8.17886V60.4481H9.4047Z" fill="#415EB6"/>
<path d="M14.872 70.8979C14.1753 70.8979 13.5641 70.7321 13.0383 70.4005C12.5158 70.0689 12.1072 69.6051 11.8124 69.0089C11.521 68.4127 11.3753 67.7161 11.3753 66.9189C11.3753 66.1151 11.521 65.4134 11.8124 64.8139C12.1072 64.2144 12.5158 63.7488 13.0383 63.4173C13.5641 63.0857 14.1753 62.9199 14.872 62.9199C15.5686 62.9199 16.1782 63.0857 16.7007 63.4173C17.2265 63.7488 17.6351 64.2144 17.9265 64.8139C18.2213 65.4134 18.3686 66.1151 18.3686 66.9189C18.3686 67.7161 18.2213 68.4127 17.9265 69.0089C17.6351 69.6051 17.2265 70.0689 16.7007 70.4005C16.1782 70.7321 15.5686 70.8979 14.872 70.8979ZM14.872 69.8328C15.4012 69.8328 15.8366 69.6972 16.1782 69.4259C16.5198 69.1546 16.7727 68.7979 16.9368 68.3558C17.1009 67.9137 17.183 67.4347 17.183 66.9189C17.183 66.4031 17.1009 65.9225 16.9368 65.4771C16.7727 65.0316 16.5198 64.6716 16.1782 64.3969C15.8366 64.1223 15.4012 63.985 14.872 63.985C14.3428 63.985 13.9074 64.1223 13.5658 64.3969C13.2241 64.6716 12.9713 65.0316 12.8072 65.4771C12.643 65.9225 12.561 66.4031 12.561 66.9189C12.561 67.4347 12.643 67.9137 12.8072 68.3558C12.9713 68.7979 13.2241 69.1546 13.5658 69.4259C13.9074 69.6972 14.3428 69.8328 14.872 69.8328Z" fill="#415EB6"/>
<path d="M27.0713 70.8979C26.4283 70.8979 25.8606 70.7354 25.3682 70.4106C24.8759 70.0823 24.4907 69.6201 24.2127 69.024C23.9347 68.4244 23.7957 67.7161 23.7957 66.8988C23.7957 66.0883 23.9347 65.385 24.2127 64.7888C24.4907 64.1926 24.8775 63.7321 25.3732 63.4072C25.8689 63.0823 26.4417 62.9199 27.0914 62.9199C27.5938 62.9199 27.9907 63.0036 28.2821 63.1711C28.5768 63.3352 28.8012 63.5228 28.9553 63.7338C29.1127 63.9414 29.235 64.1122 29.322 64.2462H29.4225V60.4481H30.6082V70.7371H29.4627V69.5515H29.322C29.235 69.6921 29.111 69.8696 28.9503 70.084C28.7895 70.295 28.5601 70.4842 28.262 70.6517C27.9639 70.8158 27.567 70.8979 27.0713 70.8979ZM27.2321 69.8328C27.7077 69.8328 28.1096 69.7089 28.4378 69.461C28.7661 69.2098 29.0156 68.8632 29.1864 68.4211C29.3572 67.9756 29.4426 67.4615 29.4426 66.8787C29.4426 66.3027 29.3589 65.7986 29.1914 65.3665C29.024 64.9311 28.7761 64.5929 28.4479 64.3517C28.1197 64.1072 27.7144 63.985 27.2321 63.985C26.7297 63.985 26.311 64.1139 25.9761 64.3718C25.6445 64.6263 25.395 64.973 25.2275 65.4118C25.0634 65.8472 24.9814 66.3362 24.9814 66.8787C24.9814 67.428 25.0651 67.9271 25.2326 68.3759C25.4034 68.8213 25.6546 69.1763 25.9862 69.4409C26.3211 69.7022 26.7364 69.8328 27.2321 69.8328Z" fill="#415EB6"/>
<path d="M35.2151 70.918C34.7261 70.918 34.2823 70.8259 33.8838 70.6417C33.4852 70.4541 33.1687 70.1845 32.9342 69.8328C32.6998 69.4778 32.5826 69.0491 32.5826 68.5467C32.5826 68.1046 32.6697 67.7462 32.8438 67.4716C33.018 67.1936 33.2508 66.9759 33.5421 66.8185C33.8335 66.661 34.1551 66.5438 34.5067 66.4668C34.8618 66.3864 35.2185 66.3228 35.5768 66.2759C36.0457 66.2156 36.4259 66.1704 36.7173 66.1402C37.012 66.1067 37.2264 66.0515 37.3603 65.9744C37.4976 65.8974 37.5663 65.7634 37.5663 65.5725V65.5323C37.5663 65.0366 37.4307 64.6515 37.1594 64.3768C36.8914 64.1022 36.4845 63.9649 35.9386 63.9649C35.3725 63.9649 34.9287 64.0888 34.6072 64.3366C34.2857 64.5845 34.0596 64.8491 33.929 65.1304L32.8036 64.7285C33.0046 64.2596 33.2725 63.8945 33.6075 63.6333C33.9457 63.3687 34.3141 63.1845 34.7127 63.0807C35.1146 62.9735 35.5098 62.9199 35.8984 62.9199C36.1462 62.9199 36.4309 62.95 36.7524 63.0103C37.0773 63.0673 37.3905 63.1862 37.6919 63.367C37.9967 63.5479 38.2496 63.8208 38.4505 64.1859C38.6515 64.551 38.752 65.04 38.752 65.6529V70.7371H37.5663V69.6921H37.506C37.4256 69.8596 37.2917 70.0388 37.1041 70.2297C36.9165 70.4206 36.667 70.583 36.3555 70.717C36.0441 70.851 35.6639 70.918 35.2151 70.918ZM35.396 69.8529C35.8649 69.8529 36.2601 69.7608 36.5816 69.5766C36.9065 69.3924 37.151 69.1546 37.3151 68.8632C37.4826 68.5718 37.5663 68.2653 37.5663 67.9438V66.8586C37.5161 66.9189 37.4055 66.9742 37.2347 67.0244C37.0673 67.0713 36.873 67.1132 36.652 67.15C36.4342 67.1835 36.2216 67.2137 36.0139 67.2405C35.8096 67.2639 35.6438 67.284 35.5165 67.3007C35.2084 67.3409 34.9204 67.4063 34.6524 67.4967C34.3878 67.5838 34.1735 67.7161 34.0094 67.8936C33.8486 68.0677 33.7682 68.3055 33.7682 68.607C33.7682 69.0189 33.9206 69.3304 34.2254 69.5414C34.5335 69.7491 34.9237 69.8529 35.396 69.8529Z" fill="#415EB6"/>
<path d="M44.272 63.0204V64.0252H40.2729V63.0204H44.272ZM41.4385 61.1716H42.6241V68.5266C42.6241 68.8615 42.6727 69.1127 42.7698 69.2802C42.8703 69.4443 42.9976 69.5548 43.1517 69.6118C43.3091 69.6653 43.4749 69.6921 43.649 69.6921C43.7796 69.6921 43.8868 69.6854 43.9705 69.672C44.0543 69.6553 44.1213 69.6419 44.1715 69.6318L44.4127 70.6969C44.3323 70.7271 44.2201 70.7572 44.0761 70.7874C43.932 70.8208 43.7495 70.8376 43.5284 70.8376C43.1935 70.8376 42.8653 70.7656 42.5438 70.6216C42.2256 70.4775 41.961 70.2582 41.75 69.9634C41.5423 69.6687 41.4385 69.2969 41.4385 68.8481V61.1716Z" fill="#415EB6"/>
<path d="M48.3263 70.918C47.8373 70.918 47.3935 70.8259 46.995 70.6417C46.5964 70.4541 46.2799 70.1845 46.0454 69.8328C45.811 69.4778 45.6938 69.0491 45.6938 68.5467C45.6938 68.1046 45.7808 67.7462 45.955 67.4716C46.1292 67.1936 46.3619 66.9759 46.6533 66.8185C46.9447 66.661 47.2662 66.5438 47.6179 66.4668C47.9729 66.3864 48.3296 66.3228 48.688 66.2759C49.1569 66.2156 49.5371 66.1704 49.8284 66.1402C50.1232 66.1067 50.3375 66.0515 50.4715 65.9744C50.6088 65.8974 50.6775 65.7634 50.6775 65.5725V65.5323C50.6775 65.0366 50.5418 64.6515 50.2705 64.3768C50.0026 64.1022 49.5957 63.9649 49.0497 63.9649C48.4837 63.9649 48.0399 64.0888 47.7184 64.3366C47.3969 64.5845 47.1708 64.8491 47.0402 65.1304L45.9148 64.7285C46.1158 64.2596 46.3837 63.8945 46.7186 63.6333C47.0569 63.3687 47.4253 63.1845 47.8239 63.0807C48.2258 62.9735 48.621 62.9199 49.0095 62.9199C49.2574 62.9199 49.5421 62.95 49.8636 63.0103C50.1885 63.0673 50.5017 63.1862 50.8031 63.367C51.1079 63.5479 51.3607 63.8208 51.5617 64.1859C51.7627 64.551 51.8631 65.04 51.8631 65.6529V70.7371H50.6775V69.6921H50.6172C50.5368 69.8596 50.4028 70.0388 50.2153 70.2297C50.0277 70.4206 49.7782 70.583 49.4667 70.717C49.1552 70.851 48.7751 70.918 48.3263 70.918ZM48.5072 69.8529C48.9761 69.8529 49.3713 69.7608 49.6928 69.5766C50.0177 69.3924 50.2622 69.1546 50.4263 68.8632C50.5938 68.5718 50.6775 68.2653 50.6775 67.9438V66.8586C50.6272 66.9189 50.5167 66.9742 50.3459 67.0244C50.1784 67.0713 49.9842 67.1132 49.7631 67.15C49.5454 67.1835 49.3328 67.2137 49.1251 67.2405C48.9208 67.2639 48.755 67.284 48.6277 67.3007C48.3196 67.3409 48.0316 67.4063 47.7636 67.4967C47.499 67.5838 47.2847 67.7161 47.1205 67.8936C46.9598 68.0677 46.8794 68.3055 46.8794 68.607C46.8794 69.0189 47.0318 69.3304 47.3366 69.5414C47.6447 69.7491 48.0349 69.8529 48.5072 69.8529Z" fill="#415EB6"/>
<path d="M61.4425 63.0204V64.0252H57.2827V63.0204H61.4425ZM58.5286 70.7371V61.9553C58.5286 61.5132 58.6325 61.1448 58.8401 60.85C59.0478 60.5553 59.3174 60.3342 59.649 60.1869C59.9805 60.0395 60.3305 59.9658 60.699 59.9658C60.9903 59.9658 61.2281 59.9893 61.4124 60.0362C61.5966 60.083 61.7339 60.1266 61.8243 60.1668L61.4827 61.1917C61.4224 61.1716 61.3387 61.1464 61.2315 61.1163C61.1277 61.0862 60.9903 61.0711 60.8195 61.0711C60.4277 61.0711 60.1447 61.1699 59.9705 61.3675C59.7997 61.5651 59.7143 61.8548 59.7143 62.2366V70.7371H58.5286Z" fill="#415EB6"/>
<path d="M65.9213 70.8979C65.2247 70.8979 64.6134 70.7321 64.0876 70.4005C63.5651 70.0689 63.1565 69.6051 62.8618 69.0089C62.5704 68.4127 62.4247 67.7161 62.4247 66.9189C62.4247 66.1151 62.5704 65.4134 62.8618 64.8139C63.1565 64.2144 63.5651 63.7488 64.0876 63.4173C64.6134 63.0857 65.2247 62.9199 65.9213 62.9199C66.618 62.9199 67.2275 63.0857 67.75 63.4173C68.2759 63.7488 68.6845 64.2144 68.9759 64.8139C69.2706 65.4134 69.418 66.1151 69.418 66.9189C69.418 67.7161 69.2706 68.4127 68.9759 69.0089C68.6845 69.6051 68.2759 70.0689 67.75 70.4005C67.2275 70.7321 66.618 70.8979 65.9213 70.8979ZM65.9213 69.8328C66.4505 69.8328 66.8859 69.6972 67.2275 69.4259C67.5692 69.1546 67.822 68.7979 67.9862 68.3558C68.1503 67.9137 68.2323 67.4347 68.2323 66.9189C68.2323 66.4031 68.1503 65.9225 67.9862 65.4771C67.822 65.0316 67.5692 64.6716 67.2275 64.3969C66.8859 64.1223 66.4505 63.985 65.9213 63.985C65.3921 63.985 64.9567 64.1223 64.6151 64.3969C64.2735 64.6716 64.0206 65.0316 63.8565 65.4771C63.6924 65.9225 63.6103 66.4031 63.6103 66.9189C63.6103 67.4347 63.6924 67.9137 63.8565 68.3558C64.0206 68.7979 64.2735 69.1546 64.6151 69.4259C64.9567 69.6972 65.3921 69.8328 65.9213 69.8328Z" fill="#415EB6"/>
<path d="M76.091 67.5821V63.0204H77.2767V70.7371H76.091V69.4309H76.0106C75.8298 69.8228 75.5484 70.156 75.1666 70.4307C74.7848 70.7019 74.3025 70.8376 73.7197 70.8376C73.2374 70.8376 72.8087 70.7321 72.4336 70.5211C72.0585 70.3067 71.7637 69.9852 71.5494 69.5565C71.335 69.1244 71.2278 68.5802 71.2278 67.9237V63.0204H72.4135V67.8433C72.4135 68.406 72.5709 68.8548 72.8857 69.1897C73.2039 69.5247 73.6092 69.6921 74.1015 69.6921C74.3963 69.6921 74.696 69.6168 75.0008 69.4661C75.3089 69.3153 75.5668 69.0842 75.7745 68.7728C75.9855 68.4613 76.091 68.0644 76.091 67.5821Z" fill="#415EB6"/>
<path d="M80.6339 66.095V70.7371H79.4482V63.0204H80.5937V64.2261H80.6942C80.875 63.8342 81.1497 63.5194 81.5181 63.2816C81.8865 63.0405 82.3621 62.9199 82.9449 62.9199C83.4674 62.9199 83.9246 63.0271 84.3164 63.2414C84.7083 63.4524 85.0131 63.774 85.2308 64.206C85.4485 64.6347 85.5573 65.1773 85.5573 65.8338V70.7371H84.3717V65.9141C84.3717 65.3079 84.2143 64.8357 83.8994 64.4974C83.5846 64.1558 83.1525 63.985 82.6033 63.985C82.2248 63.985 81.8865 64.067 81.5884 64.2311C81.2937 64.3952 81.0609 64.6347 80.8901 64.9496C80.7193 65.2644 80.6339 65.6462 80.6339 66.095Z" fill="#415EB6"/>
<path d="M90.6378 70.8979C89.9947 70.8979 89.427 70.7354 88.9347 70.4106C88.4423 70.0823 88.0572 69.6201 87.7792 69.024C87.5012 68.4244 87.3622 67.7161 87.3622 66.8988C87.3622 66.0883 87.5012 65.385 87.7792 64.7888C88.0572 64.1926 88.444 63.7321 88.9397 63.4072C89.4354 63.0823 90.0081 62.9199 90.6579 62.9199C91.1603 62.9199 91.5572 63.0036 91.8485 63.1711C92.1433 63.3352 92.3677 63.5228 92.5217 63.7338C92.6792 63.9414 92.8014 64.1122 92.8885 64.2462H92.989V60.4481H94.1746V70.7371H93.0292V69.5515H92.8885C92.8014 69.6921 92.6775 69.8696 92.5167 70.084C92.356 70.295 92.1265 70.4842 91.8284 70.6517C91.5304 70.8158 91.1335 70.8979 90.6378 70.8979ZM90.7985 69.8328C91.2741 69.8328 91.6761 69.7089 92.0043 69.461C92.3325 69.2098 92.582 68.8632 92.7528 68.4211C92.9237 67.9756 93.0091 67.4615 93.0091 66.8787C93.0091 66.3027 92.9253 65.7986 92.7579 65.3665C92.5904 64.9311 92.3426 64.5929 92.0143 64.3517C91.6861 64.1072 91.2808 63.985 90.7985 63.985C90.2961 63.985 89.8775 64.1139 89.5426 64.3718C89.211 64.6263 88.9615 64.973 88.794 65.4118C88.6299 65.8472 88.5478 66.3362 88.5478 66.8787C88.5478 67.428 88.6316 67.9271 88.799 68.3759C88.9698 68.8213 89.221 69.1763 89.5526 69.4409C89.8875 69.7022 90.3028 69.8328 90.7985 69.8328Z" fill="#415EB6"/>
</svg>
