<svg width="28" height="28" viewBox="0 0 28 28" fill="none" xmlns="http://www.w3.org/2000/svg">
<path d="M13.9883 2.33337C7.54834 2.33337 2.33334 7.56004 2.33334 14C2.33334 20.44 7.54834 25.6667 13.9883 25.6667C20.44 25.6667 25.6667 20.44 25.6667 14C25.6667 7.56004 20.44 2.33337 13.9883 2.33337ZM14 23.3334C8.84334 23.3334 4.66668 19.1567 4.66668 14C4.66668 8.84337 8.84334 4.66671 14 4.66671C19.1567 4.66671 23.3333 8.84337 23.3333 14C23.3333 19.1567 19.1567 23.3334 14 23.3334ZM14.5833 8.16671H12.8333V15.1667L18.9583 18.8417L19.8333 17.4067L14.5833 14.2917V8.16671Z" fill="#B6C8EB"/>
</svg>
