<svg width="28" height="28" viewBox="0 0 28 28" fill="none" xmlns="http://www.w3.org/2000/svg">
<path d="M13.9885 2.3335C7.5485 2.3335 2.3335 7.56016 2.3335 14.0002C2.3335 20.4402 7.5485 25.6668 13.9885 25.6668C20.4402 25.6668 25.6668 20.4402 25.6668 14.0002C25.6668 7.56016 20.4402 2.3335 13.9885 2.3335ZM14.0002 23.3335C8.8435 23.3335 4.66683 19.1568 4.66683 14.0002C4.66683 8.8435 8.8435 4.66683 14.0002 4.66683C19.1568 4.66683 23.3335 8.8435 23.3335 14.0002C23.3335 19.1568 19.1568 23.3335 14.0002 23.3335ZM14.5835 8.16683H12.8335V15.1668L18.9585 18.8418L19.8335 17.4068L14.5835 14.2918V8.16683Z" fill="#415EB6"/>
</svg>
