<svg width="28" height="28" viewBox="0 0 28 28" fill="none" xmlns="http://www.w3.org/2000/svg">
<path d="M19.8333 19.3899C20.555 19.3899 21.14 18.8049 21.14 18.0833C21.14 17.3616 20.555 16.7766 19.8333 16.7766C19.1117 16.7766 18.5267 17.3616 18.5267 18.0833C18.5267 18.8049 19.1117 19.3899 19.8333 19.3899Z" fill="#415EB6"/>
<path fill-rule="evenodd" clip-rule="evenodd" d="M19.8333 20.4166C18.9817 20.4166 17.2783 20.8366 17.22 21.6766C17.8033 22.505 18.76 23.0416 19.8333 23.0416C20.9067 23.0416 21.8633 22.505 22.4467 21.6766C22.3883 20.8366 20.685 20.4166 19.8333 20.4166Z" fill="#415EB6"/>
<path fill-rule="evenodd" clip-rule="evenodd" d="M21 12.9383V7.315L12.25 3.5L3.5 7.315V13.0433C3.5 18.34 7.23333 23.2983 12.25 24.5C12.8917 24.3483 13.51 24.1267 14.1167 23.8583C14.7597 24.7778 15.6152 25.5284 16.6104 26.0464C17.6057 26.5643 18.7113 26.8343 19.8333 26.8333C23.695 26.8333 26.8333 23.695 26.8333 19.8333C26.8333 16.3683 24.3133 13.4983 21 12.9383ZM12.8333 19.8333C12.8333 20.4867 12.9267 21.1283 13.1017 21.7233C12.8217 21.8517 12.5417 21.98 12.25 22.0733C8.55167 20.9067 5.83333 17.1267 5.83333 13.0433V8.84333L12.25 6.04333L18.6667 8.84333V12.9383C15.3533 13.4983 12.8333 16.3683 12.8333 19.8333ZM19.8333 24.5C17.255 24.5 15.1667 22.4117 15.1667 19.8333C15.1667 17.255 17.255 15.1667 19.8333 15.1667C22.4117 15.1667 24.5 17.255 24.5 19.8333C24.5 22.4117 22.4117 24.5 19.8333 24.5Z" fill="#415EB6"/>
</svg>
