<svg width="28" height="28" viewBox="0 0 28 28" fill="none" xmlns="http://www.w3.org/2000/svg">
<path d="M19.8335 19.3902C20.5552 19.3902 21.1402 18.8052 21.1402 18.0835C21.1402 17.3619 20.5552 16.7769 19.8335 16.7769C19.1119 16.7769 18.5269 17.3619 18.5269 18.0835C18.5269 18.8052 19.1119 19.3902 19.8335 19.3902Z" fill="#B6C8EB"/>
<path fill-rule="evenodd" clip-rule="evenodd" d="M19.8335 20.4165C18.9819 20.4165 17.2785 20.8365 17.2202 21.6765C17.8035 22.5048 18.7602 23.0415 19.8335 23.0415C20.9069 23.0415 21.8635 22.5048 22.4469 21.6765C22.3885 20.8365 20.6852 20.4165 19.8335 20.4165Z" fill="#B6C8EB"/>
<path fill-rule="evenodd" clip-rule="evenodd" d="M21 12.9383V7.315L12.25 3.5L3.5 7.315V13.0433C3.5 18.34 7.23333 23.2983 12.25 24.5C12.8917 24.3483 13.51 24.1267 14.1167 23.8583C14.7597 24.7778 15.6152 25.5284 16.6104 26.0464C17.6057 26.5643 18.7113 26.8343 19.8333 26.8333C23.695 26.8333 26.8333 23.695 26.8333 19.8333C26.8333 16.3683 24.3133 13.4983 21 12.9383ZM12.8333 19.8333C12.8333 20.4867 12.9267 21.1283 13.1017 21.7233C12.8217 21.8517 12.5417 21.98 12.25 22.0733C8.55167 20.9067 5.83333 17.1267 5.83333 13.0433V8.84333L12.25 6.04333L18.6667 8.84333V12.9383C15.3533 13.4983 12.8333 16.3683 12.8333 19.8333ZM19.8333 24.5C17.255 24.5 15.1667 22.4117 15.1667 19.8333C15.1667 17.255 17.255 15.1667 19.8333 15.1667C22.4117 15.1667 24.5 17.255 24.5 19.8333C24.5 22.4117 22.4117 24.5 19.8333 24.5Z" fill="#B6C8EB"/>
</svg>
