<svg width="28" height="28" viewBox="0 0 28 28" fill="none" xmlns="http://www.w3.org/2000/svg">
<path d="M24.3133 4.92329C24.255 4.78329 24.185 4.65496 24.1033 4.52663C23.94 4.28163 23.7183 4.05996 23.4733 3.89663C23.345 3.81496 23.2167 3.74496 23.0767 3.68663C22.7967 3.56996 22.4933 3.49996 22.1667 3.49996H21V1.16663H18.6667V3.49996H9.33333V1.16663H7V3.49996H5.83333C5.34333 3.49996 4.9 3.65163 4.52667 3.89663C4.28167 4.05996 4.06 4.28163 3.89667 4.52663C3.815 4.65496 3.745 4.78329 3.68667 4.92329C3.57 5.20329 3.5 5.50663 3.5 5.83329V22.1666C3.5 22.7855 3.74583 23.379 4.18342 23.8165C4.621 24.2541 5.21449 24.5 5.83333 24.5H22.1667C22.4933 24.5 22.7967 24.43 23.0767 24.3133C23.2167 24.255 23.345 24.185 23.4733 24.1033C23.7183 23.94 23.94 23.7183 24.1033 23.4733C24.3483 23.1 24.5 22.645 24.5 22.1666V5.83329C24.5 5.50663 24.43 5.20329 24.3133 4.92329ZM5.83333 22.1666V5.83329H22.1667V22.1666H5.83333ZM14 15.0266C11.6317 15.0266 7 16.2866 7 19.2033V21H21V19.215C21 16.2866 16.3683 15.0266 14 15.0266ZM9.695 18.6666C10.5 18.0133 12.4717 17.36 14 17.36C15.5283 17.36 17.5117 18.0133 18.305 18.6666H9.695ZM14 14C15.925 14 17.5 12.425 17.5 10.5C17.5 8.57496 15.925 6.99996 14 6.99996C12.075 6.99996 10.5 8.57496 10.5 10.5C10.5 12.425 12.075 14 14 14ZM14 9.33329C14.6417 9.33329 15.1667 9.85829 15.1667 10.5C15.1667 11.1416 14.6417 11.6666 14 11.6666C13.3583 11.6666 12.8333 11.1416 12.8333 10.5C12.8333 9.85829 13.3583 9.33329 14 9.33329Z" fill="#415EB6"/>
</svg>
