<svg width="28" height="28" viewBox="0 0 28 28" fill="none" xmlns="http://www.w3.org/2000/svg">
<path d="M24.3133 4.92317C24.255 4.78317 24.185 4.65484 24.1033 4.5265C23.94 4.2815 23.7183 4.05984 23.4733 3.8965C23.345 3.81484 23.2167 3.74484 23.0767 3.6865C22.7967 3.56984 22.4933 3.49984 22.1667 3.49984H21V1.1665H18.6667V3.49984H9.33333V1.1665H7V3.49984H5.83333C5.34333 3.49984 4.9 3.6515 4.52667 3.8965C4.28167 4.05984 4.06 4.2815 3.89667 4.5265C3.815 4.65484 3.745 4.78317 3.68667 4.92317C3.57 5.20317 3.5 5.5065 3.5 5.83317V22.1665C3.5 22.7853 3.74583 23.3788 4.18342 23.8164C4.621 24.254 5.21449 24.4998 5.83333 24.4998H22.1667C22.4933 24.4998 22.7967 24.4298 23.0767 24.3132C23.2167 24.2548 23.345 24.1848 23.4733 24.1032C23.7183 23.9398 23.94 23.7182 24.1033 23.4732C24.3483 23.0998 24.5 22.6448 24.5 22.1665V5.83317C24.5 5.5065 24.43 5.20317 24.3133 4.92317ZM5.83333 22.1665V5.83317H22.1667V22.1665H5.83333ZM14 15.0265C11.6317 15.0265 7 16.2865 7 19.2032V20.9998H21V19.2148C21 16.2865 16.3683 15.0265 14 15.0265ZM9.695 18.6665C10.5 18.0132 12.4717 17.3598 14 17.3598C15.5283 17.3598 17.5117 18.0132 18.305 18.6665H9.695ZM14 13.9998C15.925 13.9998 17.5 12.4248 17.5 10.4998C17.5 8.57484 15.925 6.99984 14 6.99984C12.075 6.99984 10.5 8.57484 10.5 10.4998C10.5 12.4248 12.075 13.9998 14 13.9998ZM14 9.33317C14.6417 9.33317 15.1667 9.85817 15.1667 10.4998C15.1667 11.1415 14.6417 11.6665 14 11.6665C13.3583 11.6665 12.8333 11.1415 12.8333 10.4998C12.8333 9.85817 13.3583 9.33317 14 9.33317Z" fill="#B6C8EB"/>
</svg>
